<svg width="400" height="402" viewBox="0 0 400 402" fill="none" xmlns="http://www.w3.org/2000/svg">
<path d="M199.75 401C309.516 401 398.5 311.457 398.5 201C398.5 90.5431 309.516 1 199.75 1C89.9834 1 1 90.5431 1 201C1 311.457 89.9834 401 199.75 401Z" stroke="#F5C09A" stroke-width="2" stroke-miterlimit="10" stroke-linecap="round" stroke-linejoin="round"/>
<path d="M199.75 258.796V401" stroke="#F5C09A" stroke-width="2" stroke-miterlimit="10" stroke-linecap="round" stroke-linejoin="round"/>
<path d="M199.75 1V43.0699" stroke="#F5C09A" stroke-width="2" stroke-miterlimit="10" stroke-linecap="round" stroke-linejoin="round"/>
<path d="M199.75 258.796L64.3115 151L199.75 43.0699L335.188 151L274.682 199.118" stroke="#F5C09A" stroke-width="2" stroke-miterlimit="10" stroke-linecap="round" stroke-linejoin="round"/>
<path d="M314.352 268.339L335.188 251.672V151" stroke="#F5C09A" stroke-width="2" stroke-miterlimit="10" stroke-linecap="round" stroke-linejoin="round"/>
<path d="M64.3115 151V251.672L199.75 359.602L260.924 310.946" stroke="#F5C09A" stroke-width="2" stroke-miterlimit="10" stroke-linecap="round" stroke-linejoin="round"/>
<path d="M88.0867 270.624L64.9793 310.946H138.709" stroke="#F5C09A" stroke-width="2" stroke-miterlimit="10" stroke-linecap="round" stroke-linejoin="round"/>
<path d="M199.75 310.946H334.521L199.75 76L129.359 198.849" stroke="#F5C09A" stroke-width="2" stroke-miterlimit="10" stroke-linecap="round" stroke-linejoin="round"/>
</svg>
